<svg width="24" height="24" viewBox="0 0 24 24" fill="none" xmlns="http://www.w3.org/2000/svg">
<path d="M3.75 18V13.5H8.25" stroke="#717680" stroke-width="2" stroke-linecap="round" stroke-linejoin="round"/>
<path d="M20.25 6V10.5H15.75" stroke="#717680" stroke-width="2" stroke-linecap="round" stroke-linejoin="round"/>
<path d="M5.6325 9.75006C6.01288 8.67515 6.65935 7.71411 7.5116 6.95662C8.36385 6.19913 9.3941 5.66988 10.5062 5.41825C11.6183 5.16662 12.7761 5.20081 13.8714 5.51764C14.9667 5.83446 15.9639 6.42359 16.77 7.23006L20.25 10.5001M3.75 13.5001L7.23 16.7701C8.03606 17.5765 9.03328 18.1657 10.1286 18.4825C11.2239 18.7993 12.3817 18.8335 13.4938 18.5819C14.6059 18.3302 15.6361 17.801 16.4884 17.0435C17.3407 16.286 17.9871 15.325 18.3675 14.2501" stroke="#717680" stroke-width="2" stroke-linecap="round" stroke-linejoin="round"/>
</svg>
