<svg width="160" height="40" viewBox="0 0 160 40" fill="none" xmlns="http://www.w3.org/2000/svg">
<g clip-path="url(#clip0_329_26314)">
<path d="M24.0871 36.6943C24.5679 37.1708 26.1887 36.3147 26.6651 35.8337L28.573 33.9077L37.2926 33.8669C37.4999 33.866 37.6773 33.7178 37.7152 33.514C37.753 33.3101 37.6406 33.1083 37.4475 33.033L31.6707 30.7812L35.19 27.229L38.5342 27.2134C38.6059 27.2128 38.6676 27.1616 38.6806 27.0909C38.6937 27.02 38.6548 26.9501 38.5878 26.9241L35.7684 25.825C35.7519 25.7544 35.7289 25.6854 35.6995 25.6179L35.8221 25.494C35.9966 25.3179 35.9953 25.0339 35.8191 24.8592C35.6431 24.6846 35.3585 24.686 35.1842 24.8622L35.0646 24.9828C34.9964 24.9531 34.9261 24.9297 34.8544 24.9131L33.7567 22.1382C33.7303 22.0712 33.6599 22.0328 33.5892 22.0462C33.5588 22.0518 33.5319 22.067 33.5113 22.088C33.484 22.1151 33.4678 22.1528 33.468 22.194L33.4833 25.4678L29.9081 29.0764L27.6238 23.3018C27.5474 23.1089 27.3444 22.9975 27.1406 23.0367C27.0525 23.0537 26.9752 23.0967 26.9157 23.1564C26.8373 23.2359 26.7901 23.3446 26.7904 23.4628L26.8311 32.1822L24.9232 34.1082C24.447 34.5891 23.6062 36.2178 24.0871 36.6943Z" fill="white"/>
</g>
<g clip-path="url(#clip1_329_26314)">
<path d="M15.0907 2.38496C15.5694 2.86357 14.7209 4.48829 14.2421 4.96694L12.3251 6.88385L12.3251 15.6036C12.3251 15.8108 12.1778 15.989 11.9741 16.0278C11.7704 16.0665 11.5681 15.9551 11.4919 15.7623L9.21314 9.99609L5.67739 13.532L5.67739 16.8762C5.67716 16.948 5.62623 17.0099 5.55561 17.0232C5.48479 17.0367 5.41475 16.9981 5.3884 16.9312L4.27615 14.117C4.20549 14.1008 4.13636 14.0781 4.06874 14.0491L3.94538 14.1722C3.77008 14.3476 3.48607 14.3476 3.31058 14.1722C3.13518 13.997 3.13518 13.7124 3.31058 13.5373L3.43068 13.4171C3.4006 13.349 3.3769 13.2788 3.35992 13.2072L0.579914 12.1225C0.512848 12.0964 0.474109 12.0262 0.487205 11.9554C0.49267 11.925 0.507738 11.8981 0.528564 11.8773C0.555596 11.8499 0.593172 11.8335 0.634401 11.8335L3.90826 11.8335L7.50007 8.24157L1.71483 5.98425C1.52159 5.90871 1.40925 5.70625 1.44747 5.50227C1.46409 5.41412 1.50675 5.33664 1.56615 5.27682C1.64528 5.19805 1.75377 5.15032 1.87199 5.15006L10.5915 5.15006L12.5085 3.23312C12.9872 2.75466 14.612 1.90635 15.0907 2.38496Z" fill="white"/>
</g>
<g clip-path="url(#clip2_329_26314)">
<path fill-rule="evenodd" clip-rule="evenodd" d="M9.03499 37.3617C9.08294 37.4118 9.15031 37.44 9.22029 37.44C9.29026 37.44 9.35764 37.4118 9.40558 37.3617C9.40558 37.3617 10.9191 35.8089 12.1294 33.7962C12.9497 32.4316 13.6261 30.8565 13.6261 29.4058C13.6261 26.9742 11.6513 25 9.22029 25C6.7893 25 4.81445 26.9742 4.81445 29.4058C4.81445 30.8565 5.49088 32.4316 6.31115 33.7962C7.52146 35.8089 9.03499 37.3617 9.03499 37.3617ZM7.01737 29.665V27.8508C7.01737 27.7078 6.90074 27.5917 6.7582 27.5917C6.61566 27.5917 6.49904 27.7078 6.49904 27.8508V31.0904C6.49904 31.2335 6.61566 31.3496 6.7582 31.3496C6.90074 31.3496 7.01737 31.2335 7.01737 31.0904V30.1833H11.4232V31.0904C11.4232 31.2335 11.5398 31.3496 11.6824 31.3496C11.8249 31.3496 11.9415 31.2335 11.9415 31.0904V29.3944C11.9415 28.6851 11.3662 28.11 10.6574 28.11C9.93301 28.11 9.0907 28.11 9.0907 28.11C8.94687 28.11 8.83154 28.226 8.83154 28.3692V29.665H7.01737ZM7.92445 28.11C7.5668 28.11 7.27654 28.4003 7.27654 28.7579C7.27654 29.1156 7.5668 29.4058 7.92445 29.4058C8.2821 29.4058 8.57237 29.1156 8.57237 28.7579C8.57237 28.4003 8.2821 28.11 7.92445 28.11Z" fill="white"/>
</g>
<g clip-path="url(#clip3_329_26314)">
<path fill-rule="evenodd" clip-rule="evenodd" d="M32.035 14.3617C32.0829 14.4118 32.1503 14.44 32.2203 14.44C32.2903 14.44 32.3576 14.4118 32.4056 14.3617C32.4056 14.3617 33.9191 12.8089 35.1294 10.7962C35.9497 9.43161 36.6261 7.85652 36.6261 6.40583C36.6261 3.9742 34.6513 2 32.2203 2C29.7893 2 27.8145 3.9742 27.8145 6.40583C27.8145 7.85652 28.4909 9.43161 29.3111 10.7962C30.5215 12.8089 32.035 14.3617 32.035 14.3617ZM30.0174 6.665V4.85083C30.0174 4.70777 29.9007 4.59167 29.7582 4.59167C29.6157 4.59167 29.499 4.70777 29.499 4.85083V8.09042C29.499 8.23348 29.6157 8.34958 29.7582 8.34958C29.9007 8.34958 30.0174 8.23348 30.0174 8.09042V7.18333H34.4232V8.09042C34.4232 8.23348 34.5398 8.34958 34.6824 8.34958C34.8249 8.34958 34.9415 8.23348 34.9415 8.09042V6.39443C34.9415 5.68509 34.3662 5.11 33.6574 5.11C32.933 5.11 32.0907 5.11 32.0907 5.11C31.9469 5.11 31.8315 5.22598 31.8315 5.36917V6.665H30.0174ZM30.9245 5.11C30.5668 5.11 30.2765 5.40027 30.2765 5.75792C30.2765 6.11557 30.5668 6.40583 30.9245 6.40583C31.2821 6.40583 31.5724 6.11557 31.5724 5.75792C31.5724 5.40027 31.2821 5.11 30.9245 5.11Z" fill="white"/>
</g>
<circle cx="2.35605" cy="20.0001" r="0.869724" fill="white"/>
<circle cx="3.22519" cy="25.3756" r="0.869724" fill="white"/>
<circle cx="14.3502" cy="36.525" r="0.869724" fill="white"/>
<circle cx="19.7506" cy="37.3946" r="0.869724" fill="white"/>
<circle cx="37.1432" cy="20.0001" r="0.869724" fill="white"/>
<circle cx="36.274" cy="14.6051" r="0.869724" fill="white"/>
<circle cx="25.1822" cy="3.47519" r="0.869724" fill="white"/>
<circle cx="19.7506" cy="2.60556" r="0.869724" fill="white"/>
<path d="M52.72 27V15.2H48.08V13H59.96V15.2H55.32V27H52.72ZM61.4173 27V16.32H63.7973V19.26L63.5173 18.4C63.8373 17.68 64.3373 17.1333 65.0173 16.76C65.7107 16.3867 66.5707 16.2 67.5973 16.2V18.58C67.4907 18.5533 67.3907 18.54 67.2973 18.54C67.204 18.5267 67.1107 18.52 67.0173 18.52C66.0707 18.52 65.3173 18.8 64.7573 19.36C64.1973 19.9067 63.9173 20.7267 63.9173 21.82V27H61.4173ZM69.7181 27V16.32H72.2181V27H69.7181ZM70.9781 14.56C70.5115 14.56 70.1248 14.4133 69.8181 14.12C69.5248 13.8267 69.3781 13.4733 69.3781 13.06C69.3781 12.6333 69.5248 12.28 69.8181 12C70.1248 11.7067 70.5115 11.56 70.9781 11.56C71.4448 11.56 71.8248 11.7 72.1181 11.98C72.4248 12.2467 72.5781 12.5867 72.5781 13C72.5781 13.44 72.4315 13.8133 72.1381 14.12C71.8448 14.4133 71.4581 14.56 70.9781 14.56ZM81.4194 27.14C80.5527 27.14 79.7594 26.94 79.0394 26.54C78.3327 26.14 77.766 25.54 77.3394 24.74C76.926 23.9267 76.7194 22.9 76.7194 21.66C76.7194 20.4067 76.9194 19.38 77.3194 18.58C77.7327 17.78 78.2927 17.1867 78.9994 16.8C79.706 16.4 80.5127 16.2 81.4194 16.2C82.4727 16.2 83.3994 16.4267 84.1994 16.88C85.0127 17.3333 85.6527 17.9667 86.1194 18.78C86.5994 19.5933 86.8394 20.5533 86.8394 21.66C86.8394 22.7667 86.5994 23.7333 86.1194 24.56C85.6527 25.3733 85.0127 26.0067 84.1994 26.46C83.3994 26.9133 82.4727 27.14 81.4194 27.14ZM75.4994 30.88V16.32H77.8794V18.84L77.7994 21.68L77.9994 24.52V30.88H75.4994ZM81.1394 25C81.7394 25 82.2727 24.8667 82.7394 24.6C83.2194 24.3333 83.5994 23.9467 83.8794 23.44C84.1594 22.9333 84.2994 22.34 84.2994 21.66C84.2994 20.9667 84.1594 20.3733 83.8794 19.88C83.5994 19.3733 83.2194 18.9867 82.7394 18.72C82.2727 18.4533 81.7394 18.32 81.1394 18.32C80.5394 18.32 79.9994 18.4533 79.5194 18.72C79.0394 18.9867 78.6594 19.3733 78.3794 19.88C78.0994 20.3733 77.9594 20.9667 77.9594 21.66C77.9594 22.34 78.0994 22.9333 78.3794 23.44C78.6594 23.9467 79.0394 24.3333 79.5194 24.6C79.9994 24.8667 80.5394 25 81.1394 25ZM92.5103 27.14C91.617 27.14 90.757 27.0267 89.9303 26.8C89.117 26.56 88.4703 26.2733 87.9903 25.94L88.9503 24.04C89.4303 24.3467 90.0036 24.6 90.6703 24.8C91.337 25 92.0036 25.1 92.6703 25.1C93.457 25.1 94.0236 24.9933 94.3703 24.78C94.7303 24.5667 94.9103 24.28 94.9103 23.92C94.9103 23.6267 94.7903 23.4067 94.5503 23.26C94.3103 23.1 93.997 22.98 93.6103 22.9C93.2236 22.82 92.7903 22.7467 92.3103 22.68C91.8436 22.6133 91.3703 22.5267 90.8903 22.42C90.4236 22.3 89.997 22.1333 89.6103 21.92C89.2236 21.6933 88.9103 21.3933 88.6703 21.02C88.4303 20.6467 88.3103 20.1533 88.3103 19.54C88.3103 18.86 88.5036 18.2733 88.8903 17.78C89.277 17.2733 89.817 16.8867 90.5103 16.62C91.217 16.34 92.0503 16.2 93.0103 16.2C93.7303 16.2 94.457 16.28 95.1903 16.44C95.9236 16.6 96.5303 16.8267 97.0103 17.12L96.0503 19.02C95.5436 18.7133 95.0303 18.5067 94.5103 18.4C94.0036 18.28 93.497 18.22 92.9903 18.22C92.2303 18.22 91.6636 18.3333 91.2903 18.56C90.9303 18.7867 90.7503 19.0733 90.7503 19.42C90.7503 19.74 90.8703 19.98 91.1103 20.14C91.3503 20.3 91.6636 20.4267 92.0503 20.52C92.437 20.6133 92.8636 20.6933 93.3303 20.76C93.8103 20.8133 94.2836 20.9 94.7503 21.02C95.217 21.14 95.6436 21.3067 96.0303 21.52C96.4303 21.72 96.7503 22.0067 96.9903 22.38C97.2303 22.7533 97.3503 23.24 97.3503 23.84C97.3503 24.5067 97.1503 25.0867 96.7503 25.58C96.3636 26.0733 95.8103 26.46 95.0903 26.74C94.3703 27.0067 93.5103 27.14 92.5103 27.14ZM104.403 27.14C103.283 27.14 102.283 26.9067 101.403 26.44C100.537 25.96 99.8566 25.3067 99.3633 24.48C98.8699 23.6533 98.6233 22.7133 98.6233 21.66C98.6233 20.5933 98.8699 19.6533 99.3633 18.84C99.8566 18.0133 100.537 17.3667 101.403 16.9C102.283 16.4333 103.283 16.2 104.403 16.2C105.443 16.2 106.357 16.4133 107.143 16.84C107.943 17.2533 108.55 17.8667 108.963 18.68L107.043 19.8C106.723 19.2933 106.33 18.92 105.863 18.68C105.41 18.44 104.917 18.32 104.383 18.32C103.77 18.32 103.217 18.4533 102.723 18.72C102.23 18.9867 101.843 19.3733 101.563 19.88C101.283 20.3733 101.143 20.9667 101.143 21.66C101.143 22.3533 101.283 22.9533 101.563 23.46C101.843 23.9533 102.23 24.3333 102.723 24.6C103.217 24.8667 103.77 25 104.383 25C104.917 25 105.41 24.88 105.863 24.64C106.33 24.4 106.723 24.0267 107.043 23.52L108.963 24.64C108.55 25.44 107.943 26.06 107.143 26.5C106.357 26.9267 105.443 27.14 104.403 27.14ZM117.087 16.2C117.94 16.2 118.7 16.3667 119.367 16.7C120.047 17.0333 120.58 17.5467 120.967 18.24C121.353 18.92 121.547 19.8 121.547 20.88V27H119.047V21.2C119.047 20.2533 118.82 19.5467 118.367 19.08C117.927 18.6133 117.307 18.38 116.507 18.38C115.92 18.38 115.4 18.5 114.947 18.74C114.493 18.98 114.14 19.34 113.887 19.82C113.647 20.2867 113.527 20.88 113.527 21.6V27H111.027V12.16H113.527V19.2L112.987 18.32C113.36 17.64 113.9 17.12 114.607 16.76C115.327 16.3867 116.153 16.2 117.087 16.2ZM129.758 27.14C128.571 27.14 127.531 26.9067 126.638 26.44C125.758 25.96 125.071 25.3067 124.578 24.48C124.098 23.6533 123.858 22.7133 123.858 21.66C123.858 20.5933 124.091 19.6533 124.558 18.84C125.038 18.0133 125.691 17.3667 126.518 16.9C127.358 16.4333 128.311 16.2 129.378 16.2C130.418 16.2 131.344 16.4267 132.158 16.88C132.971 17.3333 133.611 17.9733 134.078 18.8C134.544 19.6267 134.778 20.6 134.778 21.72C134.778 21.8267 134.771 21.9467 134.758 22.08C134.758 22.2133 134.751 22.34 134.738 22.46H125.838V20.8H133.418L132.438 21.32C132.451 20.7067 132.324 20.1667 132.058 19.7C131.791 19.2333 131.424 18.8667 130.958 18.6C130.504 18.3333 129.978 18.2 129.378 18.2C128.764 18.2 128.224 18.3333 127.758 18.6C127.304 18.8667 126.944 19.24 126.678 19.72C126.424 20.1867 126.298 20.74 126.298 21.38V21.78C126.298 22.42 126.444 22.9867 126.738 23.48C127.031 23.9733 127.444 24.3533 127.978 24.62C128.511 24.8867 129.124 25.02 129.818 25.02C130.418 25.02 130.958 24.9267 131.438 24.74C131.918 24.5533 132.344 24.26 132.718 23.86L134.058 25.4C133.578 25.96 132.971 26.3933 132.238 26.7C131.518 26.9933 130.691 27.14 129.758 27.14ZM142.079 27.14C140.959 27.14 139.959 26.9067 139.079 26.44C138.212 25.96 137.532 25.3067 137.039 24.48C136.546 23.6533 136.299 22.7133 136.299 21.66C136.299 20.5933 136.546 19.6533 137.039 18.84C137.532 18.0133 138.212 17.3667 139.079 16.9C139.959 16.4333 140.959 16.2 142.079 16.2C143.119 16.2 144.032 16.4133 144.819 16.84C145.619 17.2533 146.226 17.8667 146.639 18.68L144.719 19.8C144.399 19.2933 144.006 18.92 143.539 18.68C143.086 18.44 142.592 18.32 142.059 18.32C141.446 18.32 140.892 18.4533 140.399 18.72C139.906 18.9867 139.519 19.3733 139.239 19.88C138.959 20.3733 138.819 20.9667 138.819 21.66C138.819 22.3533 138.959 22.9533 139.239 23.46C139.519 23.9533 139.906 24.3333 140.399 24.6C140.892 24.8667 141.446 25 142.059 25C142.592 25 143.086 24.88 143.539 24.64C144.006 24.4 144.399 24.0267 144.719 23.52L146.639 24.64C146.226 25.44 145.619 26.06 144.819 26.5C144.032 26.9267 143.119 27.14 142.079 27.14ZM150.743 24.62L150.803 21.48L156.383 16.32H159.383L154.643 21.08L153.323 22.18L150.743 24.62ZM148.703 27V12.16H151.203V27H148.703ZM156.763 27L152.863 22.18L154.443 20.18L159.803 27H156.763Z" fill="white"/>
<defs>
<clipPath id="clip0_329_26314">
<rect width="15.7252" height="15.7252" fill="white" transform="translate(39.6016 37.6548) rotate(179.732)"/>
</clipPath>
<clipPath id="clip1_329_26314">
<rect width="15.7252" height="15.7252" fill="white" transform="matrix(0 -1 -1 -1.19249e-08 16.123 17.896)"/>
</clipPath>
<clipPath id="clip2_329_26314">
<rect width="12.44" height="12.44" fill="white" transform="translate(3 25)"/>
</clipPath>
<clipPath id="clip3_329_26314">
<rect width="12.44" height="12.44" fill="white" transform="translate(26 2)"/>
</clipPath>
</defs>
</svg>
