<svg width="956" height="361" viewBox="0 0 956 361" fill="none" xmlns="http://www.w3.org/2000/svg">
<g clip-path="url(#clip0_794_53425)">
<path d="M951.286 17.2444C952.742 19.7651 947.409 25.569 944.888 27.0242L934.792 32.8525L925.088 69.0697C924.857 69.9305 924.047 70.5065 923.158 70.4411C922.269 70.3754 921.553 69.6872 921.451 68.8018L918.403 42.3158L899.782 53.067L896.06 66.9574C895.98 67.255 895.699 67.4554 895.391 67.4323C895.082 67.4094 894.834 67.1712 894.799 66.864L893.311 53.9374C893.036 53.7914 892.774 53.6203 892.525 53.4244L891.876 53.7984C890.953 54.3318 889.773 54.0158 889.239 53.092C888.706 52.1692 889.023 50.9873 889.946 50.4549L890.579 50.0895C890.529 49.7732 890.509 49.4552 890.518 49.1391L880.179 41.5397C879.929 41.3566 879.846 41.0219 879.98 40.7426C880.036 40.6223 880.129 40.5272 880.238 40.4643C880.381 40.3806 880.555 40.3542 880.727 40.4001L894.325 44.0436L913.241 33.1219L891.724 17.3077C891.005 16.7788 890.764 15.8129 891.15 15.0082C891.317 14.6606 891.58 14.3863 891.894 14.2039C892.31 13.9648 892.814 13.8873 893.305 14.0178L929.521 23.7219L939.617 17.8934C942.138 16.439 949.83 14.7237 951.286 17.2444Z" fill="#181D27"/>
</g>
<path d="M895.5 49.5C839.5 78.5 935 142.5 871 220.5C792.825 315.776 654.245 158.098 594.413 235.962" stroke="#181D27" stroke-width="2.5" stroke-dasharray="10 10"/>
<path d="M10.2 256.3V229.3L113.7 94H155.4L53.4 229.3L33.9 223.3H200.4V256.3H10.2ZM125.4 304V256.3L126.6 223.3V181H163.2V304H125.4Z" fill="#181D27"/>
<path d="M304.8 307C288.2 307 273.2 302.8 259.8 294.4C246.6 286 236.2 273.8 228.6 257.8C221 241.6 217.2 222 217.2 199C217.2 176 221 156.5 228.6 140.5C236.2 124.3 246.6 112 259.8 103.6C273.2 95.2 288.2 91 304.8 91C321.6 91 336.6 95.2 349.8 103.6C363 112 373.4 124.3 381 140.5C388.8 156.5 392.7 176 392.7 199C392.7 222 388.8 241.6 381 257.8C373.4 273.8 363 286 349.8 294.4C336.6 302.8 321.6 307 304.8 307ZM304.8 273.1C314.6 273.1 323.1 270.5 330.3 265.3C337.5 259.9 343.1 251.7 347.1 240.7C351.3 229.7 353.4 215.8 353.4 199C353.4 182 351.3 168.1 347.1 157.3C343.1 146.3 337.5 138.2 330.3 133C323.1 127.6 314.6 124.9 304.8 124.9C295.4 124.9 287 127.6 279.6 133C272.4 138.2 266.7 146.3 262.5 157.3C258.5 168.1 256.5 182 256.5 199C256.5 215.8 258.5 229.7 262.5 240.7C266.7 251.7 272.4 259.9 279.6 265.3C287 270.5 295.4 273.1 304.8 273.1Z" fill="#181D27"/>
<path d="M416.2 256.3V229.3L519.7 94H561.4L459.4 229.3L439.9 223.3H606.4V256.3H416.2ZM531.4 304V256.3L532.6 223.3V181H569.2V304H531.4Z" fill="#181D27"/>
<defs>
<clipPath id="clip0_794_53425">
<rect width="67.6183" height="67.6183" fill="white" transform="matrix(0.258819 -0.965926 -0.965926 -0.258819 938.314 82.8145)"/>
</clipPath>
</defs>
</svg>
