<svg width="24" height="24" viewBox="0 0 24 24" fill="none" xmlns="http://www.w3.org/2000/svg">
<path d="M17.4613 4.24173C19.0328 5.33975 20.2348 6.88712 20.9102 8.67986V8.72782L20.9401 8.81039C21.6871 10.8712 21.6871 13.1288 20.9401 15.1896L20.9102 15.2722V15.3201C20.2348 17.1129 19.0328 18.6603 17.4613 19.7583C15.8659 20.873 13.9665 21.4708 12.0202 21.4708C10.0739 21.4708 8.17453 20.873 6.57908 19.7583C5.00757 18.6603 3.8056 17.1129 3.1302 15.3201V15.2722L3.10027 15.1896C2.3533 13.1288 2.3533 10.8712 3.10027 8.81039L3.1302 8.72782V8.67986C3.8056 6.88713 5.00757 5.33975 6.57908 4.24173C8.17453 3.12698 10.0739 2.52917 12.0202 2.52917C13.9665 2.52917 15.8659 3.12698 17.4613 4.24173ZM3.77682 14.1279L3.87527 14.5H4.2602H6.1202H6.68401L6.61661 13.9402C6.46142 12.6514 6.46142 11.3486 6.61661 10.0598L6.68401 9.5H6.1202H4.2602H3.87527L3.77682 9.87213C3.40788 11.2667 3.40788 12.7333 3.77682 14.1279ZM5.0802 15.5H4.20811L4.6487 16.2526C5.28566 17.3407 6.1567 18.2734 7.1987 18.9832L7.92258 18.337C7.51048 17.5546 7.18879 16.7279 6.96373 15.8727L6.86563 15.5H6.4802H5.0802ZM6.4802 8.5H6.86952L6.96495 8.12255C7.18082 7.26862 7.49284 6.44192 7.89503 5.65831L7.16557 5.01892C6.13515 5.73235 5.27525 6.66482 4.64745 7.74954L4.21311 8.5H5.0802H6.4802ZM10.7044 20.1031L11.5002 20.6871V19.7V16V15.5H11.0002H8.5702H7.94315L8.08274 16.1113C8.44864 17.7137 9.37928 19.1307 10.7044 20.1031ZM11.0002 14.5H11.5002V14V10V9.5H11.0002H8.1402H7.7056L7.64507 9.93037C7.45196 11.3034 7.45196 12.6966 7.64507 14.0696L7.7056 14.5H8.1402H11.0002ZM11.0002 8.5H11.5002V8V4.3V3.3129L10.7044 3.8969C9.37928 4.8693 8.44864 6.28633 8.08274 7.88869L7.94315 8.5H8.5702H11.0002ZM18.9202 8.5H19.7923L19.3517 7.7474C18.7147 6.65934 17.8437 5.7266 16.8017 5.01677L16.0778 5.66302C16.4899 6.44538 16.8116 7.27212 17.0367 8.12726L17.1348 8.5H17.5202H18.9202ZM13.296 3.8969L12.5002 3.3129V4.3V8V8.5H13.0002H15.4302H16.0572L15.9176 7.88869C15.5518 6.28633 14.6211 4.8693 13.296 3.8969ZM12.5002 19.7V20.6871L13.296 20.1031C14.6211 19.1307 15.5518 17.7137 15.9176 16.1113L16.0572 15.5H15.4302H13.0002H12.5002V16V19.7ZM15.8602 14.5H16.2948L16.3553 14.0696C16.5484 12.6966 16.5484 11.3034 16.3553 9.93037L16.2948 9.5H15.8602H13.0002H12.5002V10V14V14.5H13.0002H15.8602ZM16.1078 18.337L16.8317 18.9832C17.8737 18.2734 18.7447 17.3407 19.3817 16.2526L19.8223 15.5H18.9502H17.5502H17.1648L17.0667 15.8727C16.8416 16.7279 16.5199 17.5546 16.1078 18.337ZM19.7402 14.5H20.1251L20.2236 14.1279C20.5925 12.7333 20.5925 11.2667 20.2236 9.87213L20.1251 9.5H19.7402H17.8802H17.3154L17.3839 10.0606C17.4624 10.7038 17.5013 11.3512 17.5002 11.9992L17.5002 12.0011C17.5016 12.6489 17.4627 13.2962 17.3839 13.9392L17.3152 14.5H17.8802H19.7402Z" fill="white" stroke="white"/>
</svg>
